<?xml version="1.0" encoding="UTF-8"?>
<svg id="Capa_2" xmlns="http://www.w3.org/2000/svg" viewBox="0 0 410 393">
  <defs>
    <style>
      .cls-1 {
        fill: #e0c397;
      }
    </style>
  </defs>
  <g id="Capa_1-2" data-name="Capa_1">
    <g>
      <path class="cls-1" d="M167,393c-2.74-2.66-6.52-1.86-9.76-2.87-4.77-1.48-9.47-3.07-14.14-4.84-3.09-1.17-3.41-2.78-2.6-5.75,2.8-10.31,7.74-19.83,10.85-30.02.72-2.36,2.41-2.96,4.71-2.31,6.4,1.8,12.79,3.66,19.23,5.29,6.36,1.6,10.24,5.49,11.19,11.92,1.4,9.49,4.54,18.79,3.52,28.58h-23ZM166.82,381.92c5.32.17,8.02-1.76,8.14-5.84.14-4.69-3.61-7.9-9.44-8.08-5.11-.16-8.16,2.01-8.25,5.85-.1,4.53,3.87,7.89,9.55,8.07ZM169.33,364.11c2.92.13,4.9-1.06,5.17-4.07.26-2.78-3.53-5.84-7.03-5.59-2.61.18-5.24,1.3-5.11,4.31.18,4.13,3.35,5.24,6.96,5.36Z"/>
      <path class="cls-1" d="M231,393c-1.72-1.44-2.86-3-2.53-5.53,1.22-9.39,2.35-18.8,3.33-28.23.35-3.31,1.88-5.38,5.11-5.8,3.72-.49,6.98-2.15,10.36-3.54,5.52-2.26,9.37-1.23,11.47,4.16,3.26,8.39,6.99,16.57,10.63,24.79.95,2.15.39,3.5-1.53,4.52-.44.23-.91.41-1.37.6-3.97,1.57-8.48,5.06-12.15,2.19-3.37-2.63-.89-7.78-.78-11.82.07-2.66.5-5.3.56-7.96.04-1.71.66-4.24-1.97-4.34-2.91-.11-1.92,2.48-1.97,4.15-.17,6-.29,11.99-.4,17.99-.05,2.96-.89,5.65-4.32,5.49-3.42-.16-3.39-3.16-3.26-5.7.24-4.48.69-8.95.91-13.43.1-1.94.15-4-1.58-5.34-1.97.36-1.54,1.75-1.6,2.8-.32,5.82-1.08,11.67-.73,17.45.3,4.97-2.78,6.14-6.17,7.55h-2Z"/>
      <path class="cls-1" d="M194,393c-.56-2.17-2.1-4.45.32-6.38,2.09-1.66,3.73.24,5.43,1.04,4.67,2.2,9.26,2.32,13.79-.32,2.25-1.31,4.42-1.44,6.38.45,2.23,2.14-.68,3.46-.93,5.21h-25Z"/>
      <path class="cls-1" d="M78.99,244.25c-9.46,3.76-17.89,7.11-26.3,10.48-1.4.56-1.98,1.68-1.91,3.18.25,4.82-2.96,6.66-6.85,7.93-2.05.67-4.13,1.27-6.09,2.14-2.77,1.24-3.5,3.39-2.18,6.16,6.2,12.95,12.6,25.74,23.39,35.72,9.04,8.36,19.31,10.54,30.93,6.76,4.24-1.38,8.44-1.33,11.81,1.69,6.96,6.22,13.31,4.74,20.45-3.61,2.05-2.4,3.76-5.1,5.86-7.45,2.75-3.08,6.08-3.93,9.87-1.78,5.21,2.95,10.48,5.81,15.62,8.87,3.69,2.2,3.83,5.62,2.42,9.2-3.96,10.07-8.02,20.1-12,30.17-2.75,6.97-5.36,13.99-8.14,20.95-2.26,5.67-4.45,6.52-10,3.77-48.26-23.94-84.19-59.63-104.67-110.02-2.72-6.7-1.82-9.05,5.1-11.19,16.7-5.18,33.12-11.18,49.62-16.96,6.58-2.31,8-1.59,10.54,4.91,5.27,13.49,12.77,25.59,22.42,36.39,4.02,4.5,3.63,5.71-2.03,7.93-5.74,2.25-10.96,1.7-15.97-2.06-10.87-8.16-23.3-11.93-36.76-12.56-1.56-.07-3.92-.72-4.12,1.53-.23,2.63,2.27,2.34,4.05,2.38,13.6.28,25.81,4.31,36.4,13.06,5.07,4.18,10.9,3.91,16.55,1.54,6.66-2.79,12.41-.91,17.89,2.74,3.94,2.62,4.2,4.96,1.19,8.63-2.53,3.09-5.11,6.16-7.86,9.05-4.81,5.04-9.65,5.57-14.97,1.03-3.99-3.4-7.46-4.22-12.59-2.18-11.3,4.5-21.5,1.88-30.27-6.6-8.93-8.63-14.35-19.53-19.93-30.34-1.1-2.12-.56-3.96,1.53-5.09,1.9-1.02,3.85-2.08,5.9-2.64,4.65-1.25,8.66-2.78,8.12-8.81-.14-1.51,1.35-2.29,2.6-2.71,5.04-1.73,9.61-4.59,14.86-5.84,4.03-.96,4.1-1.22,5.51-6.36ZM134.17,352.49c0-7.03-3.92-13.02-9.97-15.28-6.44-2.4-13.66-.81-17.89,3.94-3.73,4.19-4.11,8.21-.84,12.65,3.67,4.97,8.57,8.39,14.59,9.87,8.4,2.07,14.12-2.57,14.11-11.19ZM65.03,268.91c3.72-3.44,7.72-5.28,12.71-3.76,5.33,1.63,7.15,5.77,7.72,10.96,5.04-3.89,5.93-6.88,3.69-11.24-3.69-7.17-10.53-10.09-18.01-7.69-5.03,1.61-7.01,5.2-6.12,11.72ZM74.35,306.25c4.68,0,8.42-3.39,8.59-7.79.16-4.29-4.08-8.47-8.6-8.47-5.16,0-8.29,3.21-8.24,8.43.05,4.87,3.17,7.83,8.25,7.83ZM98.12,341.32c-.17-8.01-2.37-10.45-9.49-11.56-3.71-.58-4.03.98-3.16,3.87,1.92,6.36,4.29,7.86,12.65,7.69ZM140.71,319.89c-.66-1.02.22-3.69-2.78-3.8-3.66-.13-8.04,5.04-7.85,9.39.08,1.85-.26,4.29,2.71,4.34,3.94.06,7.97-4.76,7.91-9.93ZM112.43,308.93c-.49-2.13-1.86-3.65-4.09-3.57-2.31.08-3.57,1.75-3.42,4.08.16,2.52,1.97,3.4,4.18,3.28,2.17-.12,3.12-1.65,3.33-3.79Z"/>
      <path class="cls-1" d="M208.1,275.94c-15.32,0-30.64.17-45.96-.05-12.5-.18-24.86-1.77-36.96-5.07-13.6-3.71-21.26-15.3-19.14-29.15.74-4.87,3.69-8.06,8.18-9.9,8.4-3.45,17.32-4.63,26.23-5.61,11.41-1.26,22.88-1.91,34.37-1.96,5.18-.02,8.37-2.55,10.16-7.28,3.18-8.44,5.96-10.07,15.15-8.98,3.68.44,7.31.05,10.95-.36,8.18-.9,14.64,2.61,17.44,10.24,1.73,4.71,4.6,6.28,9.37,6.39,17.62.4,35.23,1.06,52.6,4.58,12.67,2.57,17.45,6.48,18.38,15.66,1.01,9.95-5.63,20.82-15.18,24.76-11.73,4.85-24.15,6.23-36.64,6.51-16.31.36-32.64.09-48.96.09v.12ZM292.45,257.79q3.22-1.09,3.97-2.69c4.11-8.76,1.34-14.32-8.47-16.47-14.68-3.23-29.66-3.93-44.6-4.44-16.62-.56-33.27-.36-49.9-.28-14.97.07-29.96,0-44.9,1.23-8.78.72-17.54,1.77-25.94,4.6-4.89,1.65-6.87,4.98-6.23,10,.62,4.9,2.96,8.85,7.21,11.41,4.16,2.5,8.64,4.16,13.51,4.9,11.37,1.72,22.85,2.24,34.3,2.63,30.96,1.04,61.92.49,92.85-1.03,7.39-.36,15.08-.06,21.64-4.6.36-.25.56-.73.98-1.3-1.18-1-1.87-2.39-3.09-2.56-5.41,3.96-11.72,3.42-17.74,6.18.14-1.82.03-2.5.27-3.04,2.8-6.45,5.54-12.75,2.68-20.11-1.03-2.65,1.58-3.12,3.81-2.81,5.73.8,11.47,1.56,17.19,2.43,2.51.39,5.57,2.94,4.68,4.19-2.71,3.79,1.12,8.36-2.2,11.76ZM206.37,224.04c3.16,0,6.33.04,9.49-.02,1.56-.02,3.67.71,4.07-1.67.4-2.41-.88-4.75-3.12-5.02-6.93-.84-13.96-.86-20.9-.11-2.28.24-3.71,2.51-3.44,4.86.3,2.62,2.7,1.89,4.41,1.93,3.16.07,6.33.02,9.49.02ZM284.61,253.27c2.56-.97,3.87-1.96,4.91-3.6-1.69-.74-2.14-2.72-4.25-2.93-.2,2-.4,3.9-.67,6.52Z"/>
      <path class="cls-1" d="M283,300.45c8.11-6.85,15.64-13.09,22.04-20.6,7.97-9.36,14.14-19.72,18.93-30.98,3.93-9.24,14.25-10.85,21.26-3.44,1.89,1.99,2.29,4.22.85,6.36-4.45,6.63-7.69,14.02-12.93,20.13-2.84,3.31-6.15,4.7-10.64,3.52-6.42-1.69-12.27,2.84-12.76,9.5-.64,8.71,4.97,16.63,13.49,19.04,4.53,1.28,12.55-1.73,15.36-5.77,2.51-3.61,2.07-9.38-1.26-13.79-1.49-1.98-1.86-3.83-.5-5.95.27-.42.5-.86.76-1.29,8.16-13.23,8.84-13.42,22.66-6.51,2.68,1.34,5.32,2.84,8.13,3.82,5.16,1.8,8.28.14,10.04-5.08.74-2.2,1.11-4.53,1.88-6.73.9-2.57,2.06-5.29,5.52-4.57,3.34.7,5.74,2.71,5.95,6.44.11,2.03-.65,3.91-1.44,5.76-9.7,22.73-22.86,43.23-39.53,61.47-5.28,5.77-7.5,5.76-13.1.27-6.43-6.29-12.94-12.5-19.27-18.89-3.26-3.3-6.4-3.32-9.52-.17-9.62,9.7-10.63,6.44-17.21-1.61-2.83-3.46-5.56-6.99-8.69-10.95ZM350.82,298.95c-5.02.07-10.82,5.14-11.8,10.53-.61,3.4-.3,6.68,2.98,8.82,3.24,2.11,6.22,1.27,9.17-.81,3.25-2.29,5.53-5.24,6.41-9.12,1.12-4.96-2.19-9.49-6.77-9.43ZM300.96,295.32c-3.62-.03-6.69,2.87-6.85,6.45-.16,3.51,3.45,7.23,7.03,6.77,3.57-.47,6.17-2.42,6.26-6.45.09-3.75-2.81-6.74-6.45-6.77Z"/>
      <path class="cls-1" d="M255.04,320.83c-.28-3.98,1.49-5.78,3.88-6.78,5.54-2.33,10.75-5.15,15.81-8.42,4.81-3.12,7.54-2.21,11.04,2.44,2.89,3.85,5.84,7.65,8.84,11.42,3.55,4.46,7.43,4.85,11.37.61,8.78-9.43,7.88-6.72,15.23.21,5.45,5.14,10.77,10.41,16.29,15.46,3.4,3.11,3.16,5.76-.12,8.75-9.77,8.91-20.95,15.8-31.98,22.95-7.14,4.63-15.11,7.56-22.43,11.79-4.11,2.38-6.6-.39-7.48-3.83-3.84-14.89-11.35-28.39-15.87-43.02-1.32-4.26-3.27-8.33-4.57-11.58ZM298.97,343.01c-4.08-5.22-9.39-4.23-14.77-2.93-6.1,1.48-10.13,12.84-6.22,17.84,2.2,2.82,5.33,3.62,8.48,2.25,2.56-1.11,3.28-3.31,1.85-6.16-.55-1.1-.8-2.95.74-4,1.77-.54,2.48.7,3.17,1.8,1.85,2.96,4.04,4.55,7.23,1.81,3.47-2.98,3.61-6.24.53-9.6l-1.02-1ZM269.9,316.33c-2.91,5.65-.88,11.23,4.71,13.32,2.52.94,3.76.11,4.34-2.35,1.32-5.59-2.33-10.03-9.04-10.97ZM322.73,331.65c-6.4-1.66-9.96.24-11.93,6.13-1.08,3.22.09,4.32,3.26,4.18,5.5-.25,9.06-4.43,8.68-10.31Z"/>
      <path class="cls-1" d="M298.01,75.81c3.61.49,6.45,2.63,9.08,4.87,3.34,2.85,5.9,2.62,9.02-.46,6.98-6.9,14.25-13.51,21.39-20.24,4.14-3.9,5.79-4.06,9.59-.13,12.43,12.84,23.47,26.75,32.12,42.46.24.44.49.87.71,1.32.9,1.86,1.87,3.86-.64,5.15-2.16,1.12-3.33-.48-4.39-2.09-3.3-5-6.53-10.05-10.03-14.91-1.06-1.47-1.7-5.13-4.41-3.19-2.24,1.6.48,3.47,1.55,4.94q6.56,9.09-3.47,14.65c-1.74.97-3.4,2.11-5.19,2.99-3.51,1.73-4.68,4.08-2.36,7.59,1.82,2.77.67,4.78-1.85,6.16-8.03,4.39-16.11,8.67-24.15,13.03-2.64,1.43-4.54.59-5.76-1.86-1.26-2.52-4.06-5.44-.29-7.8,5.07-3.16,3.59-6.2.7-9.74-3.89-4.77-7.63-9.66-11.47-14.46-3.91-4.88-5.27-5.09-9.98-1.25-1.68,1.37-3.1,1.74-4.86.33-2.85-2.28-5.78-4.48-8.6-6.79-3.13-2.57-3.62-5.35-.63-8.48,3.1-3.25,6.04-6.64,9.1-9.93,1.28-1.38,2.78-2.42,4.85-2.18ZM345.7,68.96c-4.86-.12-7.81,2.78-7.79,7.64.02,4.91,4.31,10.91,9.01,12.05,3.75.91,7.43.66,9.3-3.54,2.74-6.15-3.72-15.99-10.52-16.15ZM332.12,76.31c-5.65,6.07-6.09,11.81-1.62,17.14,3.68,4.39,8.03,4.94,12.8,1.6q-8.52-4.66-11.18-18.74ZM329.84,117.84c.22,3.59,2.09,5.94,6.08,6.16,3.88.21,6.84-2.59,6.78-6.28-.06-3.43-3.43-7.03-6.72-6.66-3.67.41-6.04,2.5-6.14,6.79ZM304.53,85.94c-.99-2.22-2.53-4.4-5.39-4.69-2.21-.22-3.9,1.34-3.82,3.58.11,3.07,2.52,4.58,5.2,5.06,2.4.42,3.4-1.46,4-3.95Z"/>
      <path class="cls-1" d="M135.72,88.06c-2.62.23-4.48-1.09-6.27-2.7-4.23-3.8-7.73-8.27-11.35-12.61-2.56-3.07-4.72-3.29-7.84-.46-9.25,8.38-9.33,8.24-18.66-.57-4.96-4.68-10.08-9.21-15.04-13.9-3.69-3.49-3.75-5.51,0-8.62,16.77-13.91,35.1-25.26,55.27-33.6,4.14-1.71,6.65-.37,8.13,3.72,6.4,17.68,12.86,35.34,19.27,53.02,1.08,2.96.99,5.73-2.28,7.22-5.91,2.68-11.89,5.21-17.86,7.74-1.05.44-2.24.52-3.37.77ZM127.01,27.06c-6.43.29-12.79,4.16-17.61,10.6-2.31,3.09-2.34,6.71-.01,9.79,3.83,5.06,8.97,8.09,15.5,7.34,6.5-.75,11.01-4.59,13.34-10.65,3.57-9.3-.76-16.98-11.22-17.08ZM143.73,77.12c2.56-7.71.81-12.08-5.38-13.87-2.63-.76-3.63.08-3.96,2.69-.83,6.54,2.21,10.26,9.34,11.19ZM103.34,51.09c-9.47-2.51-13.32.7-11.67,9.41,7.42.91,10.65-1.61,11.67-9.41Z"/>
      <path class="cls-1" d="M253.1,73.1c.07-.25.38-1.54.83-2.77,5.98-16.58,11.96-33.17,18-49.73,2.24-6.14,3.84-6.98,9.59-4.49,19.35,8.36,37.46,18.79,53.37,32.76,4.87,4.28,4.85,4.55.09,9.23-6.05,5.96-12.11,11.89-18.2,17.81-4.5,4.37-6.51,4.33-10.77-.1-6.23-6.47-9.73-6.34-15.3.58-.94,1.17-1.83,2.37-2.81,3.5-8.16,9.4-9.79,9.77-21.35,4.59-3.34-1.49-6.65-3.08-9.85-4.84-2.06-1.14-3.87-2.69-3.59-6.54ZM285.15,27.04c-7.25-.07-11.22,3.19-12.21,8.86-1.33,7.68,3.61,15.62,11.4,18.3,6.69,2.3,15.42-1.09,18.98-7.36,1.73-3.05,1.63-6.04-.39-8.89-4.69-6.62-11.08-10.29-17.78-10.91ZM276.98,63.41c-7.09-.96-12.23,4.11-8.58,13.7,8.46-1.01,10.79-4.74,8.58-13.7ZM321.64,60.25c-.24-8.41-3.27-10.86-11.98-9.66-1.22,7.49,3.58,11.36,11.98,9.66Z"/>
      <path class="cls-1" d="M147.41,114.03c7-.01,13.95.44,20.81,1.89,6.86,1.45,11.92,5.3,14.47,11.76,4.05,10.27,5.27,20.91,2.33,31.73-4.2,15.43-15.47,22.82-30.32,25.14-9.97,1.56-20.12,1.65-30.25.67-22.33-2.17-26.68-15.62-28.47-29.5-.78-6.03-1.99-12.19-.34-18.34,2.09-7.83,6.19-13.63,14.22-16.59,12.16-4.49,24.6-6.95,37.55-6.75ZM144.74,125.88c-5.63.42-11.26.38-16.9,1.17-19.23,2.71-25.05,10.81-20.85,29.72.22.97.57,1.91.86,2.86,2.81,9.15,8.57,14.5,18.45,15.68,10.8,1.29,21.28.2,31.49-3.1,9.76-3.14,15.77-10.07,16.63-20.37,1.2-14.23-3.45-22.75-15.26-25.31-4.74-1.03-9.61-.61-14.43-.66Z"/>
      <path class="cls-1" d="M262.51,114.22c11.58-.49,22.92,1.1,33.97,4.5,14.65,4.51,20.95,13.26,20.48,28.48-.23,7.18-1.64,14.22-4.22,20.93-3.69,9.61-11.18,14.95-20.98,16.45-13.56,2.07-27.21,1.95-40.62-1.5-15.17-3.9-25.19-16.75-25.51-32.41-.1-4.83.24-9.6,1.15-14.38,2.74-14.47,10.43-21.34,25.25-22.04,3.49-.16,6.99-.02,10.49-.02ZM267.35,126.19c-3.66,0-7.36-.34-10.97.07-7.5.85-14.39,2.95-17.75,10.8-6.46,15.11,1.36,31.8,17.18,36.09,8.22,2.23,16.69,3.07,25.19,2.56,9.01-.55,17.16-2.93,21.1-12.29,2.14-5.1,3.39-10.45,3.63-15.97.43-9.88-3.29-15.17-12.78-18.2-8.32-2.66-16.92-3.39-25.61-3.07Z"/>
      <path class="cls-1" d="M363.86,181.33c2.18-2.89,1.33-6.03,1.01-9.06-.21-1.98-.71-3.93-.93-5.91-.47-4.18,1.04-6.4,5.65-6.79,7.64-.65,14.94-3.18,22.39-4.9,5.39-1.24,7.53-.07,8.46,5.26,1,5.74,1.76,11.51,2.61,17.28.45,3.08-.6,4.89-4.01,4.6-3.21-.27-6.26,1.04-9.36,1.09-4.22.07-5.08,2.27-4.97,5.74.14,4,.32,7.99.31,11.99-.02,7.1-3.19,10.18-10.32,9.29-7.09-.88-14.14-1.95-21.28-2.49-3-.23-5.95-.36-8.95-.31-6.33.11-9.59-2.65-9.41-8.93.5-17.83-3.39-34.69-10.45-50.93-1.11-2.54-.92-4.69,1.87-5.74,2.91-1.1,3.7,1.18,4.51,3.27,1.58,4.03,3.13,8.08,4.82,12.06,2.66,6.25,4.74,7.5,11.54,7,1.65-.12,3.27-.57,4.91-.81,6.09-.9,7.79.42,8.47,6.56q1,9.05,3.12,11.74ZM354.89,183.16c.12-3.47-.6-5.85-1.54-8.15-.99-2.43-3.02-3.61-5.5-3.5-2.56.12-4.05,1.77-4.85,4.27-1.16,3.65-.71,7.22.24,10.74.76,2.79,2.71,4.49,5.78,4.53,3.01.04,4.48-1.77,5.14-4.44.36-1.44.61-2.9.72-3.45ZM370.74,194.14c-.1-4.02-3.06-7.33-6.14-6.94-3.8.49-5.3,3.05-5.22,6.68.09,3.8,2.97,7.2,5.94,6.66,3.6-.66,5.15-3.31,5.41-6.4Z"/>
      <path class="cls-1" d="M100.58,98.26c-3.59,3.22-1.85,10.93-9.24,8.97-3.99-1.06-5.82-3.6-5.41-7.88-.78-.14-1.39-.36-1.99-.35-5.24.08-8.41-2.22-8.93-6.53-.53-4.35,2.85-8.77,7.63-9.6,5.98-1.04,11.26.35,16.02,6.16-.73-4.18.99-5.63,3.88-6.47,3.19-.92,4.85-3.94,7.13-6.07,3.1-2.9,5.82-3.4,8.81.24,2.85,3.47,6.15,6.56,9.08,9.97,3.72,4.33,3.77,7.92-.88,11.05-9.13,6.14-16.14,14.28-23.29,22.41-3.68,4.18-6.25,8.97-9.03,13.67-2.86,4.84-4.4,5.41-9.18,2.88-5.44-2.88-10.94-5.67-16.27-8.75-6.57-3.8-6.57-8.28-.23-12.46,4.16-2.74,8.97-4.38,12.68-7.89,1.76-1.67,3.69-.39,5.54.46,8.73,4.05,13.43.94,13.68-9.79ZM117.98,87.03c-.33-1.61-.43-3.31-1.05-4.8-1.21-2.88-3.48-1.87-5.47-1.02-2.09.89-3.92,2.16-2.72,4.89.99,2.26,2.56,3.38,5.15,2.2,1.32-.6,2.51-1.71,4.15-1.34.21,1.54-.87,2.44-1.77,3.37-1.72,1.8-1.59,3.4.13,5.15,1.64,1.68,3.24,1.42,4.83.14,1.48-1.19,3.7-2.06,2.99-4.59-.88-3.08-3.57-3.58-6.24-4.02ZM84.63,91.85c-.01-1.62-.99-2.48-2.4-2.69-1.75-.26-2.93.72-3.19,2.41-.26,1.73.63,3.01,2.45,3,1.65,0,2.67-1.13,3.14-2.71ZM95.95,100.93c-.05-1.7-.86-2.77-2.62-2.85-1.56-.07-2.46.95-2.67,2.33-.27,1.73.86,2.84,2.41,3.1,1.79.31,2.6-.92,2.88-2.58Z"/>
      <path class="cls-1" d="M26.03,188.38c0-5.32-.27-10.66.06-15.95.5-7.93,3.91-10.58,11.69-9.75,12.24,1.3,24.08,4.75,36.21,6.66,3.86.61,5.66,3.22,4.89,7.27-1.39,7.36-2.34,14.71-1.32,22.27.56,4.17-1.75,7.08-6.06,7.72-3.77.56-7.59.95-11.4,1.04-9.31.23-18.57.93-27.82,1.98-4.6.52-6.47-1.12-6.55-5.78-.08-5.15-.02-10.31-.02-15.46.11,0,.21,0,.32,0ZM70.14,198.06c-3.72-3.25-7.22-5.99-7.42-11.1-.21-5.4,4.71-7.43,7.11-11.17-6.12-2.52-9.39-1.64-12.76,3.16-4.2,5.97-3.8,12.27,1.12,17.73,3.53,3.92,6.61,4.4,11.95,1.38ZM41.28,187.83c5.85.04,10.09-4.38,10.14-10.58.04-5.24-4.94-9.99-10.46-9.96-5.61.03-9.84,4.42-9.92,10.31-.09,6.2,3.91,10.19,10.25,10.24Z"/>
      <path class="cls-1" d="M206.66,324.89c3.82,0,7.64,0,11.47,0,5.5,0,6.61,1.06,5.79,6.45-1.69,11.15-3.57,22.27-5.35,33.4-.34,2.13-.5,4.28-.86,6.41-1.01,6.11-6.08,10.86-11.61,10.95-5.59.09-10.54-4.43-11.54-10.73-2.14-13.44-4.23-26.88-6.28-40.33-.67-4.42.82-6.08,5.42-6.15,4.32-.07,8.64-.01,12.96-.01,0,0,0,.01,0,.02Z"/>
      <path class="cls-1" d="M95.74,82.27c-4.1-1.02-7.99-1.34-11.93-1.23-5.16.14-8.22,3.25-10.37,7.45-2.04,3.97-.72,7.22,2.3,10.32,3.23,3.32,2.48,5.38-1.83,7.46-6.5,3.14-13.95,4.94-17.46,12.42-.92,1.95-2.75,1.31-4.36.48-5.62-2.9-11.26-5.78-16.89-8.66-3.78-1.93-4.36-4.76-2.27-8.26,9.45-15.76,19.89-30.76,33.33-43.47,1.7-1.6,3.71-2.84,5.71-.93,7.82,7.46,16.54,14,23.35,22.51.26.33.21.91.41,1.9ZM57.18,93.42c-3.79-1-4.99,3.52-8.17,2.48-.12-2.43,1.48-3.75,2.81-5.16,2.94-3.13,6.7-4.76,10.76-5.95,6.7-1.98,10.66-6.48,11.7-13.44.54-3.59-1.1-5.28-4.67-5.39-5.14-.17-10.07,3.19-12.36,9.22-2.35,6.17-5.68,11.59-10.23,16.36-1.11,1.17-2.14,2.65-2.6,4.17-.96,3.17,2.16,6.44,5.13,5.21,3.26-1.35,6.3-3.4,7.64-7.49Z"/>
      <path class="cls-1" d="M205.25,1.82c15.03-.22,14.81-.18,17.22,14.38,2.74,16.56,5.86,33.05,8.97,49.54.5,2.67.41,4.67-2.42,5.61-3.05,1.01-4.93-.64-5.74-3.27-1.45-4.78-2.17-9.72-2.6-14.7-.4-4.62-1.84-8.11-7.01-9.66-4.75-1.42-4.76-4.75-.54-8.55,4.64-4.17,4.65-10.14.04-16.24-3.13-4.14-8.66-5.12-13.45-2.39-3.37,1.93-7.07,12.13-5.58,15.56.89,2.06,2.76,2.66,4.79,3.13,1.78.42,2.78,1.78,3.02,3.58.22,1.66-.52,3.49-1.92,3.71-11.06,1.74-8.38,10.92-9.84,17.83-.48,2.27-.48,4.63-.91,6.92-.66,3.51-3.13,4.58-6.32,3.98-3.68-.69-2.24-3.39-1.87-5.55,2.94-17.1,5.96-34.18,8.11-51.41.4-3.2,1.74-6.32,2.39-9.57.45-2.24,2.48-2.91,4.68-2.89,3,.03,5.99,0,8.99,0Z"/>
      <path class="cls-1" d="M174.65,35.7c.89-8.64,1.7-16.3,2.47-23.97.15-1.49-.05-3.03.25-4.48.69-3.35,4.54-5.27,8.39-4.35,3.63.87,2.8,3.58,2.39,6.01-2.02,11.75-4.18,23.47-6.08,35.23-.46,2.83-1.95,4.41-4.45,4.5-4.32.15-8.04,1.93-11.89,3.46-5.61,2.22-9.24.99-10.96-4.79-3.23-10.83-6.47-21.65-10.11-32.36-.57-1.67.03-2.94,1.45-3.84.7-.44,1.46-.81,2.25-1.06,4.31-1.36,9.01-5.23,13.06-1.69,3.39,2.97.2,7.81-.09,11.8-.32,4.47-1.03,8.91-1.47,13.37-.16,1.66-.19,3.75,2,3.93,2.47.2,2.05-1.98,2.18-3.6.68-8.11,1.41-16.21,2.08-24.32.22-2.69,1.36-4.58,4.26-4.46,3.16.13,3.43,2.5,3.44,5.02.03,6.51-2.33,12.77-1.97,19.31.1,1.92-.34,4.04,2.81,6.27Z"/>
      <path class="cls-1" d="M251.49,53.8c-12.46.26-20.55-5.99-22.91-18.12-1.77-9.13-3.22-18.33-4.64-27.53-.75-4.86.9-5.94,5.92-5.29,10.25,1.32,20.34,3.35,30.33,5.96,7.43,1.94,8.37,3.74,5.97,10.93-3.21,9.63-6.32,19.28-9.46,28.93-.86,2.63-1.87,5.07-5.21,5.13ZM247.28,29.87c5.82-.11,9.55-2.99,9.42-7.3-.17-5.86-5.62-10.32-12.48-10.2-5.99.1-9.44,2.99-9.44,7.92,0,5.01,6.11,9.7,12.49,9.58ZM241.44,34.03c-2.94.27-5.79,1.45-6.07,5.38-.23,3.25,4.01,6.53,8.22,6.43,3.46-.08,6.33-1.34,6.53-5.34.17-3.36-3.99-6.51-8.67-6.48Z"/>
      <path class="cls-1" d="M402.1,224.1c-.19,9.25-3.4,17.9-5.39,26.79-.75,3.37-3.6,3.91-6.33,3.09-9.85-2.96-19.67-6.04-29.4-9.36-3.21-1.09-4.01-4.05-2.63-7.01,2.28-4.87,3-10.17,4.57-15.23,2.12-6.84,4.86-8.74,12.12-8,6.6.67,13.2,1.32,19.82,1.81,7.34.54,7.36.47,7.23,7.9ZM394.15,231.52c-.33-3.06.44-6.9-4.23-7.65-3.6-.57-6.73,2.19-7.6,6.91-.44,2.41-.45,4.94-.29,7.39.13,2.01.95,4,3.17,4.58,2.37.62,4.56.13,6.32-1.8,2.45-2.69,2.49-6,2.62-9.44ZM373.14,224.08c-3.83-.03-6.81,3.2-6.7,7.12.1,3.39,1.73,5.73,5.47,5.79,3.53.06,6.16-3.04,6.11-7.07-.04-3.57-1.77-5.58-4.89-5.85Z"/>
      <path class="cls-1" d="M76.84,166.29c-4.35-1.09-8.75-2.01-13.02-3.32-5.66-1.74-6.83-3.89-5.53-9.74.54-2.43,1.45-4.77,2.19-7.16,1.89-6.11,1.05-7.88-4.97-10.3-8.95-3.6-17.93-7.11-26.84-10.78-4.73-1.95-5.49-4.18-3.17-8,1.42-2.34,3.14-3.21,5.81-1.92,18.14,8.72,36.3,17.4,54.46,26.07,1.93.92,2.96,2.27,2.14,4.36-.82,2.08-2.62,1.86-4.22,1.16-4.32-1.89-5.67.08-6.92,4.09-1.47,4.71-2.99,8.63,3.53,10.39,1.16.31,1.7,1.52,1.18,2.88-.85,2.22-2.66,2.2-4.63,2.26Z"/>
      <path class="cls-1" d="M205.02,101.69q-15.33-6.15-11.44-24.51c3.01.98,3.53,3.25,3.23,5.89-.21,1.81-.76,3.59-.93,5.4-.49,5.38,1.49,6.95,7.66,5.69-4.25-6.46,2.47-12.16.25-18.84,5.32,2.06,6.57,5.58,4.4,10.48-1.63,3.67-.17,7.88,3.4,9.43,2.18.95,4.4-.09,3.47-2.21-2.48-5.65,1.09-10.21,1.47-15.47,2.33.78,2.28,2.59,2.73,4.11.72,2.45.23,4.97.43,7.45.47,5.87,1.26,11.15-7.35,12.32-4.69.64-5.65,5.14-3.01,9.54,1.53,2.56,2.33,4.57,1.09,7.68-1.46,3.67,1.08,7.09,2.52,10.39,1.77,4.06,2.17,7.87.02,11.94-2.03,3.85-5.37,4.81-9.2,4.66-4.02-.16-5.05-3.14-5.56-6.51-.22-1.47-.71-2.9-1.11-4.34-.78-2.77-.04-4.7,2.61-6.22,7.64-4.4,8.52-8.83,3.22-15.53-1.89-2.38-2.43-4.63-.44-7.21.89-1.16,1.55-2.5,2.54-4.13Z"/>
      <path class="cls-1" d="M45.03,213.23c2.82-.36,4.39,1.01,4.99,3.68,1.62,7.3,3.27,14.59,4.86,21.9.59,2.73-1.11,4.07-3.34,4.76-10.18,3.14-20.38,6.22-30.58,9.28-2.79.84-5.06.28-5.72-2.95-.68-3.32,1.41-4.42,4.21-4.87,10.48-1.66,19.56-5.55,24.64-15.68,1.02-2.04,2.63-4.13.36-6.36-2.4-2.36-4.23-.31-6.15.89-4.72,2.96-9.81,3-14.92,1.54-3.67-1.05-7.22-2.53-10.81-3.87-1.23-.46-2.68-.88-2.37-2.69.24-1.41,1.39-1.74,2.6-1.88,10.74-1.26,21.48-2.51,32.23-3.77Z"/>
      <path class="cls-1" d="M366.49,152.06c2.52-2.26,4.41-4.05,6.4-5.71,6.46-5.36,13.78-5.08,21.27-2.97,1.88.53,3.01,1.95,3.07,4.09.07,2.32-1.2,3.08-3.26,3.6-7.36,1.87-14.62,4.15-22.02,5.82-7.01,1.58-10.98-.89-13.3-7.87-1.78-5.36-3.15-10.86-4.85-16.25-.79-2.5-.13-4.42,2.04-5.5,8.48-4.24,17.04-8.35,25.58-12.47,2.54-1.22,4.19.1,5.2,2.3.99,2.13.39,3.76-1.83,4.91-2.5,1.3-4.97,2.71-7.26,4.35-9.79,6.97-12.24,12.51-11.06,25.71Z"/>
      <path class="cls-1" d="M323.48,169.9c-3.44-1.98-3.96-4.93-2.86-7.9.7-1.89.53-2.84-.82-4.27-2-2.1-1.69-4.77-1.03-7.9,3.35,1.93,6.22,3.56,5.08,7.69-.42,1.51.26,2.01,1.25,2.79,3.48,2.76,3.72,5.99.81,9.83,2,.94,5.19,1.22,4.61,4.15-1.31,6.49,2.11,12.51,1.45,18.92-.68,6.62-.97,13.27-1.5,19.91-.4,4.95-3.95,3.13-7.38,2.66,1.21,2.81,4.05,4.08,3.88,7-.16,2.79-1.44,4.78-3.65,6.17-2.88,1.81-7.16.39-9.03-2.83-2.23-3.82-.59-7.05,5.41-10.47-2.17-3.01-3.23-6.14-.28-9.28.81-.86.71-1.62.32-2.68-1.41-3.83-.53-7.17,2.83-9.94-2.37-3.58-2.78-7.16.01-10.56,1.02-1.24.21-2.01-.28-3.08-1.57-3.48-2.22-6.98,1.2-10.2Z"/>
      <path class="cls-1" d="M202.59,321.29c-13.64.36-11.69-4.17-8.53-12.77,2.69-7.32,5.63-14.56,8.53-21.8.66-1.64,1.21-3.66,3.52-3.7,2.31-.04,2.98,1.89,3.63,3.57,3.48,8.98,6.96,17.97,10.3,27.01,2,5.42.59,7.43-5.31,7.26-4.16-.12-8.22,1.57-12.15.44Z"/>
      <path class="cls-1" d="M25.63,128.32c1.72.53,4.15,1.12,6.46,2.01,7.43,2.87,14.78,5.94,22.23,8.76,3.23,1.22,4.59,2.98,3.26,6.44-1.37,3.55-2.36,7.27-3.91,10.74-1.24,2.77-3.53,4.68-6.83,3.38-8.54-3.37-17.68-4.3-26.45-6.71-6.09-1.68-6.72-2.55-4.92-8.69,1.12-3.82,2.26-7.64,3.52-11.41.92-2.79,2.89-4.39,6.64-4.5ZM36.07,140.13c-.61-2.79-1.43-5.98-5.55-5.97-3.94.01-7.36,4.51-7.3,9.23.05,4.08,2.45,6.83,5.77,6.62,3.81-.23,7.22-4.79,7.08-9.89ZM38.77,147.16c-.18,2.96,2.29,4.22,5.03,4.28,3.18.07,5.32-1.89,5.31-5.28-.01-3.43-2.16-5.15-5.41-5.14-3.52,0-4.86,2.29-4.93,6.14Z"/>
      <path class="cls-1" d="M224.84,312.96c1.68-8.91,3.59-19.21,5.61-29.48.28-1.42.94-2.98,2.69-3.29,1.81-.33,2.73,1.04,3.52,2.3,5.23,8.32,10.43,16.66,15.59,25.02,1.72,2.78.83,4.96-2.16,5.85-6.69,2-13.41,3.95-20.21,5.51-3.95.9-5.2-.5-5.03-5.9Z"/>
      <path class="cls-1" d="M187.15,314.61c.48,3.64-1.08,4.8-4.63,4.36-5.29-.65-10.56-1.4-15.58-3.17-4.93-1.74-6.38-4.69-4.09-9.31,3.38-6.84,7.23-13.45,10.99-20.1,1.11-1.96,2.86-3.46,5.29-3.02,2.16.4,3.33,2.1,3.68,4.23,1.47,9,2.9,18,4.34,27.01Z"/>
      <path class="cls-1" d="M250,202.24c-.04-6.32,3.39-11.08,9.73-12.78,7.73-2.07,15.53-1.76,23.05.87,10.14,3.55,13.12,13.08,7.22,22.08-5.42,8.26-15.65,12.15-24.72,9.39-8.4-2.56-15.23-11.3-15.28-19.55ZM271.35,218.97c8.02.01,15.95-6.09,17.2-13.23.87-4.95-2.32-9.46-7.51-10.62-5.38-1.2-5.85,2.91-6.88,6.39-.19.63-.23,1.32-.46,1.92-.4,1.02-1.23,1.61-2.31,1.56-1.07-.04-1.94-.69-2.18-1.74-.25-1.12-.2-2.3-.34-3.45-.69-5.63-4.33-7.65-9.55-5.31-3.95,1.77-5.97,6.19-4.97,10.86,1.61,7.44,9.29,13.6,17,13.61Z"/>
      <path class="cls-1" d="M205.35,69.99c-.5,0-1,0-1.49,0-10.84-.07-13.96-4.43-10.48-14.91,1.53-4.59,4.75-8.04,8.67-10.64,3.98-2.63,14.33,2.43,15.94,7.56,1.26,4.04,1.21,8.2.86,12.34-.25,2.96-1.8,4.67-5.07,5.07-2.81.35-5.6.56-8.42.57Z"/>
      <path class="cls-1" d="M145.94,186.93c4.84.09,12.59,1.07,15.67,9.45,3.08,8.38-1.61,14.75-7.59,20.05-6.35,5.64-13.73,6.31-21.41,3.23-7.51-3.01-12-8.79-13.49-16.67-.88-4.65,2.51-9.83,7.49-12.44,4.47-2.34,10.21-3.61,19.32-3.62ZM141.45,203.8c-3.48-.77-3.29-3.65-3.95-5.92-.82-2.86-2.21-4.86-5.59-4.31-6.91,1.12-10.47,8.16-7.26,14.35,3.51,6.77,10.26,10.64,17.5,10.04,6.51-.54,13.58-6.41,15.65-13.01,1.44-4.6-.6-9.58-4.88-11.89-4.7-2.53-9.11-.19-9.67,5.12-.2,1.9.51,4.08-1.8,5.61Z"/>
      <path class="cls-1" d="M85.01,194.39c-6.33-3.87-6.87-7.49-2.17-12.46-2.79-4.87-2.15-8.73,2.14-12.62-1.22-3.24-1.77-6.49,1.67-8.79,1.64-1.1,3.46-.49,4.31,1.12,1.71,3.25.6,6.06-2.29,8.34,3.02,4.18,1.86,8.13-.38,12.02,3.76,4.61,3.73,6.6-.17,11.61,5.36,3.51,6.08,6.6,2.7,11.86,2.47,1.37,4.59,3.09,3.33,6.28-1.75,4.4-6.45,3.44-9.79,4.78-1.62.65-2.34-1.73-2.62-3.49-.66-4.17-.7-4.18,6.26-7.67-2.88-1-7.69,1.99-7.92-3.89-.13-3.37-.86-7.18,4.94-7.08Z"/>
      <path class="cls-1" d="M357.15,154.97c.08,2.88-1.16,4.8-3.87,5.76-3.52,1.24-7.22.82-10.84,1.1-1.84.14-2.79-1.64-3.4-3.23-2.01-5.28-3.95-10.58-5.91-15.87-.11-.31-.18-.64-.22-.97-.39-3.03,5.38-7.89,11.34-9.65,3.42-1.01,5.35.56,6.65,3.53,2.74,6.24,5.29,12.53,6.24,19.33Z"/>
      <path class="cls-1" d="M228.08,184.5c2.78,1.53,5.14,3.44,2.39,6.58-1.94,2.21-4.03.74-5.62-.8-3.34-3.23.28-4.37,2.19-6.05-2.88-2.74-5.19-5.53-1.72-9.55-5.45-2.35-8.71-7.13-13.9-9.23-2.18-.88-2.61-2.63-1.75-4.95,1.77-4.77,3.33-9.63,5.14-14.37,1.66-4.35,2.77-9.27,4.31-13.9.54-1.61-.15-4.13,2.79-3.6,2.55.46,3.51,2.35,3.23,4.83-.51,4.66-2.67,8.5-6.34,11.94,2.67,3.34,1.99,6.97.82,10.66-1.23,3.89.34,6.27,3.98,7.89,4,1.78,9.12,12.03,8.42,16.04-.37,2.13-2.56,2.44-3.92,4.5Z"/>
      <path class="cls-1" d="M252.88,286.99c.3-2.99-.7-5.56,1.83-6.72,2.51-1.15,3.9,1.16,5.54,2.43,4.34,3.35,8.67,6.73,12.96,10.14,4.59,3.64,4.49,6.56-.56,9.57-3.71,2.21-7.63,4.06-11.47,6.05-3.01,1.57-4.79.53-5.33-2.7-1.08-6.55-2.08-13.11-2.98-18.77Z"/>
      <path class="cls-1" d="M62.15,211.26c6.37-.11,7.23.82,6.48,7.11-.48,4.03,2.28,7.16,2.98,10.92,1.12,6.02-.39,8.88-6.6,10.47-4.67,1.19-7.03-.73-8.25-6.68-.79-3.9-1.45-7.84-2.44-11.7-1.97-7.74-.31-9.98,7.82-10.12Z"/>
      <path class="cls-1" d="M325.86,288.17c7.21-4.24,10.39-3.77,12.09,1.22,1.67,4.89-.75,10.43-5.77,11.54-12.29,2.71-20.41-1.28-20.43-15.85,0-3.35,1.76-5.79,4.71-7.01,3.04-1.25,6.55-.99,9.13.7,3.34,2.18.69,5.72.27,9.4ZM334.9,291.79c-.24-1.69-1.14-2.76-2.92-2.68-1.51.07-2.55,1.05-2.53,2.52.03,1.91,1.29,3.09,3.2,2.96,1.47-.11,2.22-1.26,2.25-2.8ZM322.75,283.75c-.03-1.6-.86-2.5-2.41-2.61-1.53-.11-2.66.62-2.81,2.18-.15,1.57.83,2.48,2.36,2.6,1.53.12,2.5-.67,2.85-2.17Z"/>
      <path class="cls-1" d="M191.8,165.54c3.11-12.27-2.75-23.03-4.41-34.35-.34-2.29-3.17-5.63.73-6.86,4.17-1.32,4.16,2.98,4.78,5.38,2.32,8.94,4.55,18.02,7.45,26.67,2.33,6.95,3.52,10.4-5.15,10.95-1.07.07-1.46,1.26-1.8,2.2-1.23,3.34-3.62,4.2-6.74,2.92-2.1-.86-3.11-2.43-1.91-4.78,1.6-3.11,3.78-4.47,7.05-2.14Z"/>
      <path class="cls-1" d="M159.21,289c-.54,4.95-1.46,9.99-1.52,15.16-.04,3.67-2.38,5.43-6.03,4.66-5.56-1.16-9.8-4.77-13.96-8.29-2.26-1.91-.1-3.61,1.36-4.87,4.14-3.56,8.32-7.1,12.61-10.47,1.69-1.33,3.26-3.83,5.98-2.26,2.36,1.36,1.25,3.86,1.55,6.06Z"/>
      <path class="cls-1" d="M182.85,344.28c.56,3.4-1.36,4.72-4.62,4.41-6.98-.66-13.68-2.66-20.29-4.82-3.66-1.2-3.64-4.38-2.43-7.48,1.22-3.13,3.17-5.17,6.89-3.64,4.34,1.78,8.94,2.5,13.51,3.28,6.01,1.03,7.01,2.12,6.95,8.25Z"/>
      <path class="cls-1" d="M41,225.17c-1.83,8.77-14.17,18.19-23.67,17.17-2.13-.23-4.13-.78-4.65-3.05-1.09-4.8-1.92-9.65-3.09-15.7,10.85,4,20.69,8.97,31.41,1.58Z"/>
      <path class="cls-1" d="M234.78,348.82c-2.87.07-5.18-.15-5.49-2.96-.36-3.17-.46-7.06,3.08-8.15,6.44-1.99,13.11-3.39,19.78-4.41,3.42-.52,4.54,2.89,5.42,5.53.92,2.76-.82,4.41-3.16,5.37-6.48,2.64-13.24,4.15-19.62,4.62Z"/>
      <path class="cls-1" d="M360.14,217.76c-1.77,6.76-3.35,14.26-6.17,21.39-1.11,2.8-3.36,2.6-5.86,1.75-2.66-.91-4.77-2.23-3.84-5.33,2.02-6.71,3.44-13.54,4.95-20.36.76-3.41,3.7-3.4,6.46-3.08,2.87.33,4.53,1.89,4.46,5.64Z"/>
      <path class="cls-1" d="M337.56,237.21c-5.72-.09-8.18-3.36-6.51-8.51,1.45-4.46,1.81-9.1,2.82-13.63,1.01-4.51,3.05-5.38,8.28-4.12,3.84.93,4.49,3.51,3.68,6.86-1.25,5.16-2.54,10.31-3.81,15.47-.62,2.53-1.87,4.29-4.46,3.93Z"/>
      <path class="cls-1" d="M367.98,147.18c1.03-10.66,9.32-20.65,17.47-22.65,1.69-.42,3.53-.78,4.51.92,2.06,3.59,3.94,7.3,4.15,11.57.1,2.03-.89,3.39-2.97,2.91-8.56-1.96-16.03.07-23.16,7.26Z"/>
      <path class="cls-1" d="M374.21,260.23c-.2,5.43-3.07,7.42-8.26,5.69-3.98-1.33-7.51-3.55-11.02-5.79-3.11-1.98-3.47-4.38-1.9-7.65,1.53-3.21,3.45-4.02,6.78-2.79,2.95,1.09,6.16,1.46,9.15,2.45,3.79,1.26,5.52,4.09,5.25,8.1Z"/>
      <path class="cls-1" d="M252.65,324.36c-.31,2.81-1.56,5.06-3.96,6.13-4.45,1.97-9.36,2.13-14.1,2.22-3.18.07-3.67-6.2-.81-9.48,1.74-1.99,13.57-5.11,15.99-4.13,2.41.98,2.49,3.29,2.88,5.26Z"/>
      <path class="cls-1" d="M165.78,318.83c6.46.28,12.9,4.27,14.45,8.71,1.06,3.03.06,5.45-3.13,5.11-4.71-.5-9.61-.97-13.87-3.33-2.68-1.48-4.03-4.04-3.06-7.18.89-2.86,3.24-3.52,5.6-3.31Z"/>
      <path class="cls-1" d="M302.69,103.9c1.3.07,2.03,1.04,2.84,1.85,4.58,4.6,8.57,9.67,12.2,15.04,1.26,1.86,1.94,3.53-.25,5.13-2.11,1.54-3.72.62-5.13-1.08-4.13-4.97-8.25-9.95-12.37-14.93-1-1.21-1.76-2.49-.53-3.99.85-1.04,1.76-2.01,3.25-2.02Z"/>
      <path class="cls-1" d="M396.2,199.02c5.91,0,8.46,1.6,8.15,5.87-.19,2.71-.24,6.38-4.48,6.43-9.18.09-11.88-1.2-11.99-5.38-.13-5.15,1.98-6.91,8.31-6.91Z"/>
      <path class="cls-1" d="M70.65,214.88c.3-2.19.54-4.22,3.04-4.76,2.35-.5,3.92.68,4.42,2.94,1.31,5.98,2.53,11.99,3.68,18,.35,1.84-.4,3.31-2.33,3.81-2.03.53-3.74-.05-4.31-2.21-1.57-5.91-3-11.85-4.49-17.78Z"/>
      <path class="cls-1" d="M178.86,82.11c4.13-.1,7.45,2.91,7.59,6.88.13,3.69-3.34,7.44-7.08,7.67-3.85.23-7.97-3.62-7.89-7.36.08-3.97,3.28-7.08,7.38-7.18Z"/>
      <path class="cls-1" d="M233.27,96.68c-3.95.07-7.26-3.2-7.26-7.18,0-4.26,2.89-7.3,6.99-7.38,4.1-.08,7.67,3.03,7.78,6.76.1,3.83-3.66,7.73-7.51,7.8Z"/>
      <path class="cls-1" d="M177.89,52.51c1.31-.2,2.36.23,2.65,1.58.45,2.11-.08,4.35-1.84,5.32-4.96,2.73-10.52,3.78-16.08,4.5-1.47.19-2.33-1.09-2.64-2.51-.39-1.81.16-3.26,1.84-4.19,5-2.77,10.43-4.12,16.08-4.69Z"/>
      <path class="cls-1" d="M14.76,196.73c-4.12.21-6.75-1.2-6.71-5.85.04-4.34,2.11-6.54,6.31-6.46,5.89.12,8.73,2.33,8.6,6.66-.13,4.02-2.56,5.7-8.2,5.65Z"/>
      <path class="cls-1" d="M14.11,210.88c-4.06.73-5.88-1.22-6.08-5.45-.22-4.54,1.87-6.31,6.22-6.36,6.29-.08,8.52,1.22,8.77,5.54.26,4.38-2.03,6.04-8.91,6.27Z"/>
      <path class="cls-1" d="M293.41,285.06c-.64,1.04-.95,1.83-1.51,2.38-2.6,2.59-4.56,6.97-9.08,5.56-4.53-1.42-4.16-6.4-5.31-10.04-.73-2.31.72-3.99,3.33-3.37,4.31,1.01,8.72,1.94,12.57,5.47Z"/>
      <path class="cls-1" d="M396.54,195.76c-3.3.1-6.98.87-7.52-4.07-.39-3.53.72-5.89,4.78-5.81,1.16.02,2.4.25,3.46-.07,3.98-1.2,6.52-.29,6.77,4.25.26,4.61-2.18,6.24-6.5,5.7-.33-.04-.66,0-.99,0Z"/>
      <path class="cls-1" d="M17.87,169.01c-3.43-.07-7.32.71-6.84-5.05.32-3.93,1.3-6.27,5.93-5.86,5.62.49,7.9,2.07,7.8,6.22-.12,4.76-3.1,5.3-6.89,4.7Z"/>
      <path class="cls-1" d="M98.13,222.31c.06,4.15-3.36,7.55-7.08,7.35-4.04-.21-5.83-2.83-6.05-6.55-.22-3.74,2.68-6.36,6.68-6.29,3.97.06,6.07,2.14,6.45,5.5Z"/>
      <path class="cls-1" d="M247.19,63.56c-3.04-.92-7.47-2.22-11.88-3.61-1.69-.53-3.08-1.64-2.86-3.56.24-2.15,2.1-2.3,3.79-2.3,5.06,0,9.68,1.91,14.33,3.55,1.64.58,2.44,2.14,1.84,4.08-.6,1.96-1.9,2.57-5.22,1.84Z"/>
      <path class="cls-1" d="M234.12,67.88c-.07-2.51.65-4.29,4.08-3.09,2.5.87,5.19,1.24,7.59,2.29,2.5,1.09,3.94,3.35,2.96,6.1-1.05,2.97-3.38,3.03-6.14,2.07-3.77-1.31-8.7-1-8.49-7.38Z"/>
      <path class="cls-1" d="M186.06,192.95c-2.13-.66-4.61-.61-5.47-3.48-.93-3.1,2.04-3.7,3.47-5.65-4.63-1.49-4.66-4.74-2.92-8.16,1.29-2.54,3.64-2.08,5.5-.58,3.93,3.18,1.6,6.01-1.27,9.03,5.99,2.71,3.04,5.81.63,8.9l.08-.07Z"/>
      <path class="cls-1" d="M197.17,192.52c-3.02-.48-5.54-2.05-5.86-5.78-.28-3.21,2.82-6.38,6.11-6.49,3.5-.12,6.52,2.64,6.56,5.98.04,3.17-3.12,6.27-6.81,6.29Z"/>
      <path class="cls-1" d="M255.68,93.32c-.24,3.67-2.41,5.9-6.18,6.26-3.09.29-6.41-3.19-6.24-6.46.19-3.67,2.42-5.74,5.97-6.1,3.44-.35,6.44,2.63,6.45,6.31Z"/>
      <path class="cls-1" d="M178.19,68.51c.06,2.14-.88,4.44-3.58,5.3-3.19,1.02-6.48,3.13-9.86,1.2-2.81-1.6-2.18-5.9,1.09-7.76,3.07-1.74,6.64-1.84,10.04-2.31,2.01-.28,2.37,1.33,2.31,3.57Z"/>
      <path class="cls-1" d="M15.23,181.87c-2.32-.3-6.34.89-6.17-4.14.13-3.88,2.08-6.19,6.36-5.72,3.57.39,7.84-.07,7.63,5.43-.18,4.85-3.77,4.64-7.82,4.43Z"/>
      <path class="cls-1" d="M162.6,86.94c3.92.15,6.52,3.14,6.2,6.77-.33,3.72-2.69,5.81-6.23,5.66-3.88-.16-5.89-2.66-5.61-6.67.27-3.8,2.59-5.45,5.64-5.77Z"/>
      <path class="cls-1" d="M214.17,192.2c-3.51,0-5.5-2.17-5.87-5.75-.32-3,3.29-6.48,6.48-6.25,3.74.27,5.78,2.85,5.8,6.28.03,3.62-2.24,5.73-6.42,5.71Z"/>
      <path class="cls-1" d="M131.14,282.26c2.16-.17,3.89.58,3.49,2.96-.6,3.53-1.04,7.54-5.19,8.87-2.25.72-7.31-3.85-7.49-6.27-.23-3.15,3.52-5.42,9.19-5.56Z"/>
      <path class="cls-1" d="M148.04,93.54c2.69.62,5.32,1.44,5.48,4.73.15,3.36-1.86,5.29-5.11,5.38-3.03.08-4.98-1.7-5.16-4.8-.19-3.24,2.02-4.57,4.79-5.31Z"/>
      <path class="cls-1" d="M263.86,93.91c2.87.19,4.94,1.46,5,4.49.07,3.13-1.77,5.09-4.88,5.17-3.17.08-4.93-1.81-4.88-5.03.05-3.05,1.86-4.44,4.75-4.63Z"/>
      <path class="cls-1" d="M222.96,192.93c2.47.14,4.91.62,4.66,3.78-.18,2.29-1.57,4.18-4.15,4.15-2.82-.04-4.09-2.13-4.33-4.6-.25-2.56,1.41-3.5,3.82-3.33Z"/>
      <path class="cls-1" d="M363.05,116.03c-.52,3.12-2.75,4-5.41,4.1-2.19.08-3.51-1.25-3.47-3.36.06-3.17,2.69-4.12,5.11-4.48,2.42-.36,3.29,1.69,3.76,3.74Z"/>
      <path class="cls-1" d="M372.92,110.41c-.19,2.93-1.8,4.23-4.19,4.4-2.66.19-4.08-1.65-4.22-3.96-.16-2.75,2.24-3.58,4.38-3.78,2.32-.21,3.44,1.56,4.03,3.33Z"/>
      <path class="cls-1" d="M136.06,101.19c2.49.22,4.24,1.5,4.4,3.94.15,2.33-1.5,3.64-3.76,3.76-2.54.14-4.21-1.25-4.33-3.76-.12-2.35,1.57-3.47,3.7-3.94Z"/>
      <path class="cls-1" d="M185.99,193.02c.82-.03,1.64-.08,2.46-.07,1.78,0,3.8-.37,4.34,2.11.44,2.06-.91,3.41-2.19,4.67-1.23,1.21-2.67,1.22-3.96.03-1.51-1.38-2.75-2.92-1.59-5.14.3-.58.68-1.11,1.02-1.66,0,0-.08.07-.08.07Z"/>
      <path class="cls-1" d="M279.8,104.83c-.26,2.61-1.5,3.97-3.83,4.1-2.39.13-3.87-1.16-3.97-3.49-.11-2.54,1.4-4.14,3.93-4.15,2.31,0,3.42,1.68,3.88,3.54Z"/>
      <path class="cls-1" d="M92.22,150.64c.96,3.09,1.74,5.65-.89,7.62-1.31.98-2.8.33-3.17-1.13-.75-3.01.72-5.02,4.06-6.49Z"/>
      <path class="cls-1" d="M125.01,351.47c1.35.02,3.02,1.14,3.35,3.35.3,2.02-.84,3.68-3.02,3.84-2.65.19-3.89-1.49-4.15-3.97-.22-2.1.83-3.1,3.82-3.22Z"/>
      <path class="cls-1" d="M112.08,344.4c1.96.45,3.62,1.18,3.6,3.13-.02,2.07-1.52,3.33-3.56,3.4-2.27.09-3.23-1.36-3.12-3.53.11-2.07,1.57-2.69,3.08-3.01Z"/>
      <path class="cls-1" d="M123.18,345.75c-1.7-.54-3.1-1.49-2.8-3.44.26-1.68,1.66-2.38,3.32-2.21,1.6.17,3.02.89,2.87,2.7-.15,1.86-1.55,2.76-3.4,2.95Z"/>
      <path class="cls-1" d="M232.96,266.15c-1.3,0-2.63.03-3.95,0-3.8-.12-4.65-2.24-3.23-5.34,1.94-4.21,4.07-8.35,6.31-12.41,1.71-3.1,4-3.08,6.44-.66,2.85,2.83,4.62,13.14,2.65,16.57-2.02,3.53-5.51.83-8.22,1.84Z"/>
      <path class="cls-1" d="M179.36,266.38c-7.1-.53-7.08-.64-5.77-7.89.64-3.51-.24-7.29,2.48-10.39,1.94-2.21,3.59-2.88,5.55-.22,2.57,3.49,5.17,6.98,6.81,11.01,2.17,5.32,1.07,6.9-4.75,7.33-1.48.11-2.93.73-4.33.16Z"/>
      <path class="cls-1" d="M168.06,264.34c-4.65,1.27-8.81,3.35-12.57-.26-3.54-3.4-2.84-11.77,1.8-19.64,3.72,6.87,7.14,13.2,10.77,19.9Z"/>
      <path class="cls-1" d="M246.64,264.83c3.4-6.46,6.81-12.91,10.34-19.62,4.17,4.96,5.44,13.15,2.77,17.72-2.99,5.12-8.02,2.15-12.1,3-.34-.36-.68-.73-1.01-1.09Z"/>
      <path class="cls-1" d="M240.83,242.08c-.29-3.39,1.41-4.29,4.52-4.34,9.38-.15,10.43,1.22,7.08,10.11-.57,1.52-1.35,3.09-2.43,4.26-2.75,2.97-6.51,2.14-7.67-1.75-.8-2.67-1.02-5.51-1.49-8.27Z"/>
      <path class="cls-1" d="M167.82,237.84c2.27.27,6.03-1.27,6.11,3.66.13,7.74-2.03,12.43-5.6,12.36-3.65-.06-7.14-5.75-7.48-12.19-.19-3.63-.17-3.65,6.97-3.83Z"/>
      <path class="cls-1" d="M213.11,244.36c-.14,1.14-.1,2.86-.59,4.4-1.09,3.41-4.02,3.54-6.94,3.37-3.1-.18-3.71-2.26-3.58-4.88.05-1.16.08-2.33-.06-3.47-.77-6.26,2.84-9.05,8.83-6.79,3.6,1.36,1.97,4.42,2.35,7.37Z"/>
      <path class="cls-1" d="M199.03,244.8c-.16,3.64.96,7.23-3.82,7.34-4.52.1-5.56-2.71-5.4-6.55.05-1.14-.11-2.32-.35-3.45-.58-2.72.18-4.67,3.08-5.18,2.72-.48,5.05.12,5.77,3.24.4,1.76.57,3.58.72,4.61Z"/>
      <path class="cls-1" d="M224.73,240.96c-.18,2.3-.47,4.59-.53,6.89-.1,3.64-2.42,4.47-5.37,4.18-3.05-.3-4.25-2-3.5-5.18.49-2.06.28-4.28.67-6.38.57-3.06,2.86-3.79,5.61-3.59,2.54.18,3.21,1.93,3.13,4.08Z"/>
      <path class="cls-1" d="M222.96,258.96c-.21,5.42-2.15,8.06-5.79,7.74-2.66-.24-4.58-1.53-3.97-4.52.69-3.4.29-7.99,5.57-7.94,2.63.02,4.9,1.4,4.19,4.72Z"/>
      <path class="cls-1" d="M200.87,261.19c.19,3.02-.53,4.95-3.68,5.07-3.72.14-5.89-2.76-5.97-7.61-.05-3.25,1.79-3.85,4.45-3.93,5-.15,4.86,3.5,5.2,6.47Z"/>
      <path class="cls-1" d="M148.58,263.75c-6.77.56-11.08-3.49-10.49-8.81.13-1.19.71-2.31,1.96-2.57,1.97-.41,3.84.44,4.68,2.05,1.49,2.85,2.49,5.96,3.85,9.34Z"/>
      <path class="cls-1" d="M211.18,259.19c-.61,2.68.54,6.87-3.89,6.8-5.75-.09-3.02-5.33-3.85-8.18-.81-2.8,2-3.55,4.22-3.49,2.96.09,3.95,2.05,3.52,4.87Z"/>
      <path class="cls-1" d="M145.76,241.85c-1.04,3.31.31,7.77-4.84,7.78-2.94,0-3.89-2.28-4.01-4.74-.15-3.3,2.93-6.07,6.1-5.8,2,.17,3.14.98,2.74,2.76Z"/>
      <path class="cls-1" d="M129.97,256.02c0-2.38.79-4.24,3.04-3.86,4.63.77,3.75,5.16,4.68,8.23.43,1.42-.71,2.62-2.29,2.45-4.23-.45-4.76-3.87-5.43-6.81Z"/>
      <path class="cls-1" d="M136.04,244.63c-.11,2.53-.56,5.08-3.98,4.95-2.83-.11-3.29-2.29-3.27-4.63.03-2.68,1.23-4.61,3.95-4.83,3.06-.26,3.28,2.1,3.29,4.51Z"/>
      <path class="cls-1" d="M127.67,258.93c-2.25.5-3.78-.79-5.13-2.24-1.14-1.21-2.09-2.67-1.67-4.46.34-1.47,1.63-1.44,2.81-1.32,2,.2,3.47,1.22,4.03,3.15.45,1.56.87,3.21-.05,4.86Z"/>
      <path class="cls-1" d="M125.31,242.25c1.35,3.39,1.42,5.54-2.2,6.47-1.96.51-2.94-.25-3.11-1.96-.35-3.62,2.62-3.44,5.31-4.52Z"/>
      <path class="cls-1" d="M299.04,342.95c-.13.81.12,1.23,1.01,1.01-.13.3-.4.6-.38.89.18,2.93-.79,5.08-4.04,5.01-2.01-.04-3.68-1.4-3.3-3.57.55-3.12,2.93-3.71,5.75-3.14.3.06.64-.12.96-.2Z"/>
      <path class="cls-1" d="M283.29,351.9c1.81.48,3.51,1.53,3.26,3.59-.19,1.53-1.31,3.09-3.47,2.8-1.9-.26-3.11-1.29-3.09-3.23.03-1.95,1.28-2.94,3.3-3.15Z"/>
      <path class="cls-1" d="M284.49,341.94c1.91.08,3.26.77,3.28,2.57.02,1.67-1.15,2.82-2.76,3.06-1.82.27-2.78-.97-2.98-2.62-.22-1.87,1.15-2.56,2.46-3.01Z"/>
      <path class="cls-1" d="M129.11,38.51c-1.88-.3-2.89-1.46-2.95-3.29-.06-1.68.92-2.88,2.57-3,1.87-.13,3.14.97,3.24,2.88.1,1.87-1.07,2.95-2.86,3.42Z"/>
      <path class="cls-1" d="M127.02,49.55c-1.68-.24-2.85-1.14-2.93-2.84-.09-1.8,1.09-2.7,2.83-2.73,1.73-.03,2.93.79,2.92,2.63-.01,1.75-1.18,2.62-2.82,2.94Z"/>
      <path class="cls-1" d="M120.81,41.35c-.22,1.76-1.18,2.75-2.92,2.71-1.77-.04-2.75-1.13-2.64-2.85.11-1.62,1.08-2.9,2.8-2.81,1.65.09,2.49,1.37,2.76,2.94Z"/>
      <path class="cls-1" d="M295.69,42.94c-2.06-.11-3.13-1.14-3.15-2.79-.02-1.93,1.33-2.99,3.17-3.09,1.83-.09,2.71,1.24,2.77,2.83.07,1.94-1.11,2.98-2.79,3.05Z"/>
      <path class="cls-1" d="M288.02,45.23c-.25,1.99-1.28,2.93-2.97,2.85-1.69-.08-2.69-1.2-2.78-2.86-.09-1.7.82-2.94,2.56-2.92,1.9.02,2.71,1.51,3.2,2.93Z"/>
      <path class="cls-1" d="M286.91,34.51c-.24,1.81-1.27,3.06-3.08,3.23-1.76.16-2.73-1.06-2.76-2.72-.03-1.69,1.09-2.76,2.69-2.97,1.69-.22,2.74.76,3.14,2.46Z"/>
      <path class="cls-1" d="M134.82,173.38c-22.55.84-26.31-14.8-25.53-30.38.26-5.22,3.68-9.08,8.56-10.77,12.99-4.51,26.44-5.01,39.89-2.98,5.77.87,9.6,4.97,11.27,10.81,4.63,16.16-3.04,28.29-20.33,31.68-4.55.89-9.24,1.11-13.86,1.64ZM143.28,132.66c-5.13-.19-11.43.46-17.57,1.95-10.95,2.66-13.23,6.36-11.35,17.57.25,1.47.41,2.98.83,4.4,1.7,5.7,5.16,9.39,11.26,10.69,8.19,1.75,16.34,1.08,24.23-.75,11.51-2.68,16.14-10.79,14.3-23.08-1.16-7.77-6.09-10.73-17.98-10.78-.83,0-1.66,0-3.72,0Z"/>
      <path class="cls-1" d="M274.63,173.13c-5.56-.41-12.55-.64-19.24-2.98-12.67-4.43-19.04-21.3-12.46-33.06,2.76-4.93,7.36-7.5,12.63-7.92,11.77-.95,23.6-1.35,35.09,2.4,8.62,2.82,11.98,8.07,11,17.02-.07.66-.22,1.31-.3,1.97-1.91,17.04-8.3,22.74-26.71,22.57ZM266.18,132.97c-2.66,0-5.34-.22-7.97.05-4.43.46-8.44,1.96-10.91,6.05-5.27,8.7-.82,22.42,8.55,26.28,6.6,2.72,13.56,2.91,20.56,2.87,14.2-.08,19.96-5.63,20.52-19.84.3-7.59-2.24-11.09-9.56-12.95-6.95-1.76-14.03-2.56-21.2-2.46Z"/>
      <path class="cls-1" d="M41.44,183.17c-3.77-.06-5.93-1.95-6.07-5.42-.14-3.6,2.2-5.54,5.63-5.59,3.22-.04,5.48,1.81,5.61,5.12.14,3.45-1.76,5.57-5.18,5.89Z"/>
      <path class="cls-1" d="M60.99,82.16c-2.01-.03-3.17-1.52-2.45-3.84,1.34-4.29,3.97-7.66,8.42-9.1,2.85-.93,4.55.06,4.25,3.35-.38,4.17-5.58,9.32-10.22,9.6Z"/>
      <path class="cls-1" d="M280.34,198.19c3.25.51,5.15,2.11,5.14,4.95-.01,2.65-1.96,4.3-4.52,4.44-2.69.14-4.43-1.67-4.66-4.22-.26-2.96,1.98-4.25,4.04-5.17Z"/>
      <path class="cls-1" d="M262.08,205.13c-3.06-.24-4.41-1.79-4.35-4.59.06-2.89,1.78-4.25,4.45-4.27,2.7-.01,4.59,1.55,4.52,4.26-.07,2.81-1.85,4.52-4.61,4.6Z"/>
      <path class="cls-1" d="M270.85,215.93c-2.24-.14-3.7-1.29-3.79-3.63-.08-2.19,1.27-3.34,3.38-3.39,2.32-.06,3.82,1.07,3.8,3.52-.02,2.09-1.12,3.37-3.4,3.51Z"/>
      <path class="cls-1" d="M131.29,198.35c2.76.65,4.83,1.95,4.67,4.97-.14,2.65-1.8,4.4-4.46,4.33-2.49-.06-4.58-1.41-4.57-4.22.01-2.78,1.68-4.51,4.37-5.09Z"/>
      <path class="cls-1" d="M150.44,205.18c-2.69-.37-4.44-1.56-4.43-4.44.01-2.85,1.62-4.42,4.32-4.28,2.53.13,4.51,1.6,4.47,4.38-.03,2.69-1.75,4.13-4.37,4.35Z"/>
      <path class="cls-1" d="M141.96,216c-2.65-.08-3.99-1.26-3.93-3.65.06-2.14,1.31-3.32,3.44-3.33,2.36-.01,3.65,1.26,3.64,3.64,0,2.22-1.41,3.13-3.15,3.34Z"/>
    </g>
  </g>
</svg>